<svg width="200" height="297" viewBox="0 0 914 297" fill="none" xmlns="http://www.w3.org/2000/svg">
<path fill-rule="evenodd" clip-rule="evenodd" d="M0 148.5C0 144.125 1.73975 139.928 4.83653 136.834C7.93331 133.74 12.1334 132.002 16.513 132.002H857.595L753.663 28.1989C750.562 25.1011 748.82 20.8995 748.82 16.5185C748.82 12.1375 750.562 7.93598 753.663 4.83816C756.763 1.74034 760.969 1.0322e-07 765.354 0C769.739 -1.0322e-07 773.944 1.74034 777.045 4.83816L909.149 136.82C910.687 138.352 911.906 140.173 912.739 142.177C913.571 144.181 914 146.33 914 148.5C914 150.67 913.571 152.819 912.739 154.823C911.906 156.827 910.687 158.648 909.149 160.18L777.045 292.162C773.944 295.26 769.739 297 765.354 297C760.969 297 756.763 295.26 753.663 292.162C750.562 289.064 748.82 284.862 748.82 280.481C748.82 276.1 750.562 271.899 753.663 268.801L857.595 164.998H16.513C12.1334 164.998 7.93331 163.26 4.83653 160.166C1.73975 157.072 0 152.875 0 148.5Z" fill="black"/>
</svg>
